<mxfile host="app.diagrams.net" modified="2023-10-04T03:49:41.665Z" agent="Mozilla/5.0 (Windows NT 10.0; Win64; x64) AppleWebKit/537.36 (KHTML, like Gecko) Chrome/116.0.0.0 Safari/537.36 OPR/102.0.0.0" etag="DZiltRdNffXk9qdVh46t" version="22.0.0" type="google">
  <diagram name="Page-1" id="zv4E5vosPhUtkjpLqmy7">
    <mxGraphModel grid="1" page="1" gridSize="10" guides="1" tooltips="1" connect="1" arrows="1" fold="1" pageScale="1" pageWidth="850" pageHeight="1100" math="0" shadow="0">
      <root>
        <mxCell id="0" />
        <mxCell id="1" parent="0" />
        <mxCell id="2YwBwrBQfyQM1tyjww4t-3" style="edgeStyle=orthogonalEdgeStyle;rounded=0;orthogonalLoop=1;jettySize=auto;html=1;entryX=0.5;entryY=0;entryDx=0;entryDy=0;" edge="1" parent="1" source="2YwBwrBQfyQM1tyjww4t-1" target="2YwBwrBQfyQM1tyjww4t-2">
          <mxGeometry relative="1" as="geometry" />
        </mxCell>
        <mxCell id="2YwBwrBQfyQM1tyjww4t-1" value="Bắt đầu" style="ellipse;whiteSpace=wrap;html=1;" vertex="1" parent="1">
          <mxGeometry x="340" y="40" width="120" height="80" as="geometry" />
        </mxCell>
        <mxCell id="2YwBwrBQfyQM1tyjww4t-5" style="edgeStyle=orthogonalEdgeStyle;rounded=0;orthogonalLoop=1;jettySize=auto;html=1;entryX=0.5;entryY=0;entryDx=0;entryDy=0;" edge="1" parent="1" source="2YwBwrBQfyQM1tyjww4t-2" target="2YwBwrBQfyQM1tyjww4t-4">
          <mxGeometry relative="1" as="geometry" />
        </mxCell>
        <mxCell id="2YwBwrBQfyQM1tyjww4t-2" value="nhập điểm của 3 môn&lt;br&gt;Toán&amp;nbsp;&lt;br&gt;Lý&amp;nbsp;&lt;br&gt;Hóa" style="shape=parallelogram;perimeter=parallelogramPerimeter;whiteSpace=wrap;html=1;fixedSize=1;" vertex="1" parent="1">
          <mxGeometry x="321.25" y="210" width="157.5" height="80" as="geometry" />
        </mxCell>
        <mxCell id="2YwBwrBQfyQM1tyjww4t-7" style="edgeStyle=orthogonalEdgeStyle;rounded=0;orthogonalLoop=1;jettySize=auto;html=1;entryX=1;entryY=0.5;entryDx=0;entryDy=0;" edge="1" parent="1" source="2YwBwrBQfyQM1tyjww4t-4" target="2YwBwrBQfyQM1tyjww4t-6">
          <mxGeometry relative="1" as="geometry" />
        </mxCell>
        <mxCell id="2YwBwrBQfyQM1tyjww4t-12" style="edgeStyle=orthogonalEdgeStyle;rounded=0;orthogonalLoop=1;jettySize=auto;html=1;entryX=0;entryY=0.5;entryDx=0;entryDy=0;" edge="1" parent="1" source="2YwBwrBQfyQM1tyjww4t-4" target="2YwBwrBQfyQM1tyjww4t-11">
          <mxGeometry relative="1" as="geometry" />
        </mxCell>
        <mxCell id="2YwBwrBQfyQM1tyjww4t-4" value="Kiểm tra nếu&amp;nbsp;&lt;br&gt;0&amp;lt;= điểm &amp;lt;=giới hạn điểm" style="rhombus;whiteSpace=wrap;html=1;" vertex="1" parent="1">
          <mxGeometry x="295" y="400" width="210" height="110" as="geometry" />
        </mxCell>
        <mxCell id="2YwBwrBQfyQM1tyjww4t-10" style="edgeStyle=orthogonalEdgeStyle;rounded=0;orthogonalLoop=1;jettySize=auto;html=1;entryX=0.5;entryY=0;entryDx=0;entryDy=0;" edge="1" parent="1" source="2YwBwrBQfyQM1tyjww4t-6" target="2YwBwrBQfyQM1tyjww4t-9">
          <mxGeometry relative="1" as="geometry" />
        </mxCell>
        <mxCell id="2YwBwrBQfyQM1tyjww4t-6" value="Tính&lt;br&gt;DTB = (Toán+lý+hóa)/3" style="rounded=0;whiteSpace=wrap;html=1;" vertex="1" parent="1">
          <mxGeometry x="60" y="425" width="120" height="60" as="geometry" />
        </mxCell>
        <mxCell id="2YwBwrBQfyQM1tyjww4t-8" value="đúng" style="text;html=1;strokeColor=none;fillColor=none;align=center;verticalAlign=middle;whiteSpace=wrap;rounded=0;" vertex="1" parent="1">
          <mxGeometry x="230" y="430" width="60" height="30" as="geometry" />
        </mxCell>
        <mxCell id="2YwBwrBQfyQM1tyjww4t-9" value="xuất ra kết quả" style="shape=parallelogram;perimeter=parallelogramPerimeter;whiteSpace=wrap;html=1;fixedSize=1;" vertex="1" parent="1">
          <mxGeometry x="60" y="590" width="120" height="60" as="geometry" />
        </mxCell>
        <mxCell id="2YwBwrBQfyQM1tyjww4t-13" style="edgeStyle=orthogonalEdgeStyle;rounded=0;orthogonalLoop=1;jettySize=auto;html=1;entryX=0.75;entryY=0;entryDx=0;entryDy=0;" edge="1" parent="1" source="2YwBwrBQfyQM1tyjww4t-11" target="2YwBwrBQfyQM1tyjww4t-2">
          <mxGeometry relative="1" as="geometry">
            <mxPoint x="440" y="180" as="targetPoint" />
            <Array as="points">
              <mxPoint x="700" y="180" />
              <mxPoint x="439" y="180" />
            </Array>
          </mxGeometry>
        </mxCell>
        <mxCell id="2YwBwrBQfyQM1tyjww4t-11" value="Yêu cầu nhập lại chính xác" style="rounded=0;whiteSpace=wrap;html=1;" vertex="1" parent="1">
          <mxGeometry x="640" y="425" width="120" height="60" as="geometry" />
        </mxCell>
      </root>
    </mxGraphModel>
  </diagram>
</mxfile>
